<?xml version="1.0" encoding="utf-8" standalone="no"?>
<!DOCTYPE svg PUBLIC "-//W3C//DTD SVG 1.1//EN"
  "http://www.w3.org/Graphics/SVG/1.1/DTD/svg11.dtd">
<!-- Created with matplotlib (https://matplotlib.org/) -->
<svg height="345.951471pt" version="1.1" viewBox="0 0 417.648125 345.951471" width="417.648125pt" xmlns="http://www.w3.org/2000/svg" xmlns:xlink="http://www.w3.org/1999/xlink">
 <defs>
  <style type="text/css">
*{stroke-linecap:butt;stroke-linejoin:round;}
  </style>
 </defs>
 <g id="figure_1">
  <g id="patch_1">
   <path d="M 0 345.951471 
L 417.648125 345.951471 
L 417.648125 0 
L 0 0 
z
" style="fill:#ffffff;"/>
  </g>
  <g id="axes_1">
   <g id="patch_2">
    <path d="M 53.328125 288.430125 
L 410.448125 288.430125 
L 410.448125 22.318125 
L 53.328125 22.318125 
z
" style="fill:#ffffff;"/>
   </g>
   <g id="PolyCollection_1">
    <defs>
     <path d="M 149.400638 -300.805119 
L 135.815612 -300.805119 
L 135.002975 -300.913526 
L 134.119752 -301.021932 
L 133.163507 -301.130338 
L 132.132213 -301.238745 
L 131.024315 -301.347151 
L 129.838793 -301.455557 
L 128.57522 -301.563964 
L 127.233814 -301.67237 
L 125.815487 -301.780776 
L 124.321883 -301.889183 
L 122.755406 -301.997589 
L 121.11924 -302.105995 
L 119.417351 -302.214402 
L 117.654484 -302.322808 
L 115.836137 -302.431214 
L 113.968531 -302.539621 
L 112.058553 -302.648027 
L 110.113697 -302.756433 
L 108.141985 -302.86484 
L 106.151876 -302.973246 
L 104.152167 -303.081652 
L 102.151884 -303.190059 
L 100.160167 -303.298465 
L 98.186147 -303.406871 
L 96.238829 -303.515278 
L 94.32697 -303.623684 
L 92.458965 -303.73209 
L 90.642738 -303.840497 
L 88.885645 -303.948903 
L 87.194391 -304.057309 
L 85.574958 -304.165716 
L 84.032555 -304.274122 
L 82.571581 -304.382528 
L 81.195614 -304.490934 
L 79.907414 -304.599341 
L 78.708946 -304.707747 
L 77.60143 -304.816153 
L 76.585395 -304.92456 
L 75.66076 -305.032966 
L 74.826923 -305.141372 
L 74.082858 -305.249779 
L 73.427224 -305.358185 
L 72.858473 -305.466591 
L 72.374961 -305.574998 
L 71.97505 -305.683404 
L 71.65721 -305.79181 
L 71.420102 -305.900217 
L 71.262656 -306.008623 
L 71.184125 -306.117029 
L 71.184125 -306.225436 
L 71.262656 -306.333842 
L 71.420102 -306.442248 
L 71.65721 -306.550655 
L 71.97505 -306.659061 
L 72.374961 -306.767467 
L 72.858473 -306.875874 
L 73.427224 -306.98428 
L 74.082858 -307.092686 
L 74.826923 -307.201093 
L 75.66076 -307.309499 
L 76.585395 -307.417905 
L 77.60143 -307.526312 
L 78.708946 -307.634718 
L 79.907414 -307.743124 
L 81.195614 -307.851531 
L 82.571581 -307.959937 
L 84.032555 -308.068343 
L 85.574958 -308.17675 
L 87.194391 -308.285156 
L 88.885645 -308.393562 
L 90.642738 -308.501969 
L 92.458965 -308.610375 
L 94.32697 -308.718781 
L 96.238829 -308.827188 
L 98.186147 -308.935594 
L 100.160167 -309.044 
L 102.151884 -309.152407 
L 104.152167 -309.260813 
L 106.151876 -309.369219 
L 108.141985 -309.477626 
L 110.113697 -309.586032 
L 112.058553 -309.694438 
L 113.968531 -309.802845 
L 115.836137 -309.911251 
L 117.654484 -310.019657 
L 119.417351 -310.128064 
L 121.11924 -310.23647 
L 122.755406 -310.344876 
L 124.321883 -310.453283 
L 125.815487 -310.561689 
L 127.233814 -310.670095 
L 128.57522 -310.778502 
L 129.838793 -310.886908 
L 131.024315 -310.995314 
L 132.132213 -311.103721 
L 133.163507 -311.212127 
L 134.119752 -311.320533 
L 135.002975 -311.42894 
L 135.815612 -311.537346 
L 149.400638 -311.537346 
L 149.400638 -311.537346 
L 150.213275 -311.42894 
L 151.096498 -311.320533 
L 152.052743 -311.212127 
L 153.084037 -311.103721 
L 154.191935 -310.995314 
L 155.377457 -310.886908 
L 156.64103 -310.778502 
L 157.982436 -310.670095 
L 159.400763 -310.561689 
L 160.894367 -310.453283 
L 162.460844 -310.344876 
L 164.09701 -310.23647 
L 165.798899 -310.128064 
L 167.561766 -310.019657 
L 169.380113 -309.911251 
L 171.247719 -309.802845 
L 173.157697 -309.694438 
L 175.102553 -309.586032 
L 177.074265 -309.477626 
L 179.064374 -309.369219 
L 181.064083 -309.260813 
L 183.064366 -309.152407 
L 185.056083 -309.044 
L 187.030103 -308.935594 
L 188.977421 -308.827188 
L 190.88928 -308.718781 
L 192.757285 -308.610375 
L 194.573512 -308.501969 
L 196.330605 -308.393562 
L 198.021859 -308.285156 
L 199.641292 -308.17675 
L 201.183695 -308.068343 
L 202.644669 -307.959937 
L 204.020636 -307.851531 
L 205.308836 -307.743124 
L 206.507304 -307.634718 
L 207.61482 -307.526312 
L 208.630855 -307.417905 
L 209.55549 -307.309499 
L 210.389327 -307.201093 
L 211.133392 -307.092686 
L 211.789026 -306.98428 
L 212.357777 -306.875874 
L 212.841289 -306.767467 
L 213.2412 -306.659061 
L 213.55904 -306.550655 
L 213.796148 -306.442248 
L 213.953594 -306.333842 
L 214.032125 -306.225436 
L 214.032125 -306.117029 
L 213.953594 -306.008623 
L 213.796148 -305.900217 
L 213.55904 -305.79181 
L 213.2412 -305.683404 
L 212.841289 -305.574998 
L 212.357777 -305.466591 
L 211.789026 -305.358185 
L 211.133392 -305.249779 
L 210.389327 -305.141372 
L 209.55549 -305.032966 
L 208.630855 -304.92456 
L 207.61482 -304.816153 
L 206.507304 -304.707747 
L 205.308836 -304.599341 
L 204.020636 -304.490934 
L 202.644669 -304.382528 
L 201.183695 -304.274122 
L 199.641292 -304.165716 
L 198.021859 -304.057309 
L 196.330605 -303.948903 
L 194.573512 -303.840497 
L 192.757285 -303.73209 
L 190.88928 -303.623684 
L 188.977421 -303.515278 
L 187.030103 -303.406871 
L 185.056083 -303.298465 
L 183.064366 -303.190059 
L 181.064083 -303.081652 
L 179.064374 -302.973246 
L 177.074265 -302.86484 
L 175.102553 -302.756433 
L 173.157697 -302.648027 
L 171.247719 -302.539621 
L 169.380113 -302.431214 
L 167.561766 -302.322808 
L 165.798899 -302.214402 
L 164.09701 -302.105995 
L 162.460844 -301.997589 
L 160.894367 -301.889183 
L 159.400763 -301.780776 
L 157.982436 -301.67237 
L 156.64103 -301.563964 
L 155.377457 -301.455557 
L 154.191935 -301.347151 
L 153.084037 -301.238745 
L 152.052743 -301.130338 
L 151.096498 -301.021932 
L 150.213275 -300.913526 
L 149.400638 -300.805119 
z
" id="mc616817b3b" style="stroke:#3f3f3f;stroke-width:1.5;"/>
    </defs>
    <g clip-path="url(#p13c86f4ac2)">
     <use style="fill:#3274a1;stroke:#3f3f3f;stroke-width:1.5;" x="0" xlink:href="#mc616817b3b" y="345.951471"/>
    </g>
   </g>
   <g id="PolyCollection_2">
    <defs>
     <path d="M 321.579792 -69.617346 
L 320.756458 -69.617346 
L 320.707207 -71.40605 
L 320.653678 -73.194755 
L 320.595724 -74.983459 
L 320.533221 -76.772164 
L 320.466076 -78.560868 
L 320.394226 -80.349572 
L 320.317646 -82.138277 
L 320.236349 -83.926981 
L 320.150389 -85.715686 
L 320.059868 -87.50439 
L 319.96493 -89.293095 
L 319.865768 -91.081799 
L 319.762624 -92.870503 
L 319.655783 -94.659208 
L 319.54558 -96.447912 
L 319.432392 -98.236617 
L 319.316636 -100.025321 
L 319.198766 -101.814025 
L 319.079268 -103.60273 
L 318.958655 -105.391434 
L 318.837461 -107.180139 
L 318.716232 -108.968843 
L 318.595521 -110.757548 
L 318.475884 -112.546252 
L 318.357865 -114.334956 
L 318.241994 -116.123661 
L 318.128782 -117.912365 
L 318.018708 -119.70107 
L 317.912217 -121.489774 
L 317.809717 -123.278479 
L 317.711569 -125.067183 
L 317.61809 -126.855887 
L 317.529547 -128.644592 
L 317.446155 -130.433296 
L 317.368082 -132.222001 
L 317.295447 -134.010705 
L 317.228325 -135.79941 
L 317.166747 -137.588114 
L 317.110709 -139.376818 
L 317.060173 -141.165523 
L 317.015079 -142.954227 
L 316.975343 -144.742932 
L 316.940873 -146.531636 
L 316.91157 -148.320341 
L 316.887333 -150.109045 
L 316.86807 -151.897749 
L 316.853699 -153.686454 
L 316.844157 -155.475158 
L 316.839398 -157.263863 
L 316.839398 -159.052567 
L 316.844157 -160.841271 
L 316.853699 -162.629976 
L 316.86807 -164.41868 
L 316.887333 -166.207385 
L 316.91157 -167.996089 
L 316.940873 -169.784794 
L 316.975343 -171.573498 
L 317.015079 -173.362202 
L 317.060173 -175.150907 
L 317.110709 -176.939611 
L 317.166747 -178.728316 
L 317.228325 -180.51702 
L 317.295447 -182.305725 
L 317.368082 -184.094429 
L 317.446155 -185.883133 
L 317.529547 -187.671838 
L 317.61809 -189.460542 
L 317.711569 -191.249247 
L 317.809717 -193.037951 
L 317.912217 -194.826656 
L 318.018708 -196.61536 
L 318.128782 -198.404064 
L 318.241994 -200.192769 
L 318.357865 -201.981473 
L 318.475884 -203.770178 
L 318.595521 -205.558882 
L 318.716232 -207.347587 
L 318.837461 -209.136291 
L 318.958655 -210.924995 
L 319.079268 -212.7137 
L 319.198766 -214.502404 
L 319.316636 -216.291109 
L 319.432392 -218.079813 
L 319.54558 -219.868517 
L 319.655783 -221.657222 
L 319.762624 -223.445926 
L 319.865768 -225.234631 
L 319.96493 -227.023335 
L 320.059868 -228.81204 
L 320.150389 -230.600744 
L 320.236349 -232.389448 
L 320.317646 -234.178153 
L 320.394226 -235.966857 
L 320.466076 -237.755562 
L 320.533221 -239.544266 
L 320.595724 -241.332971 
L 320.653678 -243.121675 
L 320.707207 -244.910379 
L 320.756458 -246.699084 
L 321.579792 -246.699084 
L 321.579792 -246.699084 
L 321.629043 -244.910379 
L 321.682572 -243.121675 
L 321.740526 -241.332971 
L 321.803029 -239.544266 
L 321.870174 -237.755562 
L 321.942024 -235.966857 
L 322.018604 -234.178153 
L 322.099901 -232.389448 
L 322.185861 -230.600744 
L 322.276382 -228.81204 
L 322.37132 -227.023335 
L 322.470482 -225.234631 
L 322.573626 -223.445926 
L 322.680467 -221.657222 
L 322.79067 -219.868517 
L 322.903858 -218.079813 
L 323.019614 -216.291109 
L 323.137484 -214.502404 
L 323.256982 -212.7137 
L 323.377595 -210.924995 
L 323.498789 -209.136291 
L 323.620018 -207.347587 
L 323.740729 -205.558882 
L 323.860366 -203.770178 
L 323.978385 -201.981473 
L 324.094256 -200.192769 
L 324.207468 -198.404064 
L 324.317542 -196.61536 
L 324.424033 -194.826656 
L 324.526533 -193.037951 
L 324.624681 -191.249247 
L 324.71816 -189.460542 
L 324.806703 -187.671838 
L 324.890095 -185.883133 
L 324.968168 -184.094429 
L 325.040803 -182.305725 
L 325.107925 -180.51702 
L 325.169503 -178.728316 
L 325.225541 -176.939611 
L 325.276077 -175.150907 
L 325.321171 -173.362202 
L 325.360907 -171.573498 
L 325.395377 -169.784794 
L 325.42468 -167.996089 
L 325.448917 -166.207385 
L 325.46818 -164.41868 
L 325.482551 -162.629976 
L 325.492093 -160.841271 
L 325.496852 -159.052567 
L 325.496852 -157.263863 
L 325.492093 -155.475158 
L 325.482551 -153.686454 
L 325.46818 -151.897749 
L 325.448917 -150.109045 
L 325.42468 -148.320341 
L 325.395377 -146.531636 
L 325.360907 -144.742932 
L 325.321171 -142.954227 
L 325.276077 -141.165523 
L 325.225541 -139.376818 
L 325.169503 -137.588114 
L 325.107925 -135.79941 
L 325.040803 -134.010705 
L 324.968168 -132.222001 
L 324.890095 -130.433296 
L 324.806703 -128.644592 
L 324.71816 -126.855887 
L 324.624681 -125.067183 
L 324.526533 -123.278479 
L 324.424033 -121.489774 
L 324.317542 -119.70107 
L 324.207468 -117.912365 
L 324.094256 -116.123661 
L 323.978385 -114.334956 
L 323.860366 -112.546252 
L 323.740729 -110.757548 
L 323.620018 -108.968843 
L 323.498789 -107.180139 
L 323.377595 -105.391434 
L 323.256982 -103.60273 
L 323.137484 -101.814025 
L 323.019614 -100.025321 
L 322.903858 -98.236617 
L 322.79067 -96.447912 
L 322.680467 -94.659208 
L 322.573626 -92.870503 
L 322.470482 -91.081799 
L 322.37132 -89.293095 
L 322.276382 -87.50439 
L 322.185861 -85.715686 
L 322.099901 -83.926981 
L 322.018604 -82.138277 
L 321.942024 -80.349572 
L 321.870174 -78.560868 
L 321.803029 -76.772164 
L 321.740526 -74.983459 
L 321.682572 -73.194755 
L 321.629043 -71.40605 
L 321.579792 -69.617346 
z
" id="mec7060ac6b" style="stroke:#3f3f3f;stroke-width:1.5;"/>
    </defs>
    <g clip-path="url(#p13c86f4ac2)">
     <use style="fill:#b5c8e1;stroke:#3f3f3f;stroke-width:1.5;" x="0" xlink:href="#mec7060ac6b" y="345.951471"/>
    </g>
   </g>
   <g id="matplotlib.axis_1">
    <g id="xtick_1">
     <g id="line2d_1">
      <defs>
       <path d="M 0 0 
L 0 3.5 
" id="m28577cd0d5" style="stroke:#000000;stroke-width:0.8;"/>
      </defs>
      <g>
       <use style="stroke:#000000;stroke-width:0.8;" x="142.608125" xlink:href="#m28577cd0d5" y="288.430125"/>
      </g>
     </g>
     <g id="text_1">
      <!-- afl -->
      <defs>
       <path d="M 34.28125 27.484375 
Q 23.390625 27.484375 19.1875 25 
Q 14.984375 22.515625 14.984375 16.5 
Q 14.984375 11.71875 18.140625 8.90625 
Q 21.296875 6.109375 26.703125 6.109375 
Q 34.1875 6.109375 38.703125 11.40625 
Q 43.21875 16.703125 43.21875 25.484375 
L 43.21875 27.484375 
z
M 52.203125 31.203125 
L 52.203125 0 
L 43.21875 0 
L 43.21875 8.296875 
Q 40.140625 3.328125 35.546875 0.953125 
Q 30.953125 -1.421875 24.3125 -1.421875 
Q 15.921875 -1.421875 10.953125 3.296875 
Q 6 8.015625 6 15.921875 
Q 6 25.140625 12.171875 29.828125 
Q 18.359375 34.515625 30.609375 34.515625 
L 43.21875 34.515625 
L 43.21875 35.40625 
Q 43.21875 41.609375 39.140625 45 
Q 35.0625 48.390625 27.6875 48.390625 
Q 23 48.390625 18.546875 47.265625 
Q 14.109375 46.140625 10.015625 43.890625 
L 10.015625 52.203125 
Q 14.9375 54.109375 19.578125 55.046875 
Q 24.21875 56 28.609375 56 
Q 40.484375 56 46.34375 49.84375 
Q 52.203125 43.703125 52.203125 31.203125 
z
" id="DejaVuSans-97"/>
       <path d="M 37.109375 75.984375 
L 37.109375 68.5 
L 28.515625 68.5 
Q 23.6875 68.5 21.796875 66.546875 
Q 19.921875 64.59375 19.921875 59.515625 
L 19.921875 54.6875 
L 34.71875 54.6875 
L 34.71875 47.703125 
L 19.921875 47.703125 
L 19.921875 0 
L 10.890625 0 
L 10.890625 47.703125 
L 2.296875 47.703125 
L 2.296875 54.6875 
L 10.890625 54.6875 
L 10.890625 58.5 
Q 10.890625 67.625 15.140625 71.796875 
Q 19.390625 75.984375 28.609375 75.984375 
z
" id="DejaVuSans-102"/>
       <path d="M 9.421875 75.984375 
L 18.40625 75.984375 
L 18.40625 0 
L 9.421875 0 
z
" id="DejaVuSans-108"/>
      </defs>
      <g transform="translate(130.806562 308.223846)rotate(-30)scale(0.1 -0.1)">
       <use xlink:href="#DejaVuSans-97"/>
       <use x="61.279297" xlink:href="#DejaVuSans-102"/>
       <use x="96.484375" xlink:href="#DejaVuSans-108"/>
      </g>
     </g>
    </g>
    <g id="xtick_2">
     <g id="line2d_2">
      <g>
       <use style="stroke:#000000;stroke-width:0.8;" x="321.168125" xlink:href="#m28577cd0d5" y="288.430125"/>
      </g>
     </g>
     <g id="text_2">
      <!-- libfuzzer -->
      <defs>
       <path d="M 9.421875 54.6875 
L 18.40625 54.6875 
L 18.40625 0 
L 9.421875 0 
z
M 9.421875 75.984375 
L 18.40625 75.984375 
L 18.40625 64.59375 
L 9.421875 64.59375 
z
" id="DejaVuSans-105"/>
       <path d="M 48.6875 27.296875 
Q 48.6875 37.203125 44.609375 42.84375 
Q 40.53125 48.484375 33.40625 48.484375 
Q 26.265625 48.484375 22.1875 42.84375 
Q 18.109375 37.203125 18.109375 27.296875 
Q 18.109375 17.390625 22.1875 11.75 
Q 26.265625 6.109375 33.40625 6.109375 
Q 40.53125 6.109375 44.609375 11.75 
Q 48.6875 17.390625 48.6875 27.296875 
z
M 18.109375 46.390625 
Q 20.953125 51.265625 25.265625 53.625 
Q 29.59375 56 35.59375 56 
Q 45.5625 56 51.78125 48.09375 
Q 58.015625 40.1875 58.015625 27.296875 
Q 58.015625 14.40625 51.78125 6.484375 
Q 45.5625 -1.421875 35.59375 -1.421875 
Q 29.59375 -1.421875 25.265625 0.953125 
Q 20.953125 3.328125 18.109375 8.203125 
L 18.109375 0 
L 9.078125 0 
L 9.078125 75.984375 
L 18.109375 75.984375 
z
" id="DejaVuSans-98"/>
       <path d="M 8.5 21.578125 
L 8.5 54.6875 
L 17.484375 54.6875 
L 17.484375 21.921875 
Q 17.484375 14.15625 20.5 10.265625 
Q 23.53125 6.390625 29.59375 6.390625 
Q 36.859375 6.390625 41.078125 11.03125 
Q 45.3125 15.671875 45.3125 23.6875 
L 45.3125 54.6875 
L 54.296875 54.6875 
L 54.296875 0 
L 45.3125 0 
L 45.3125 8.40625 
Q 42.046875 3.421875 37.71875 1 
Q 33.40625 -1.421875 27.6875 -1.421875 
Q 18.265625 -1.421875 13.375 4.4375 
Q 8.5 10.296875 8.5 21.578125 
z
M 31.109375 56 
z
" id="DejaVuSans-117"/>
       <path d="M 5.515625 54.6875 
L 48.1875 54.6875 
L 48.1875 46.484375 
L 14.40625 7.171875 
L 48.1875 7.171875 
L 48.1875 0 
L 4.296875 0 
L 4.296875 8.203125 
L 38.09375 47.515625 
L 5.515625 47.515625 
z
" id="DejaVuSans-122"/>
       <path d="M 56.203125 29.59375 
L 56.203125 25.203125 
L 14.890625 25.203125 
Q 15.484375 15.921875 20.484375 11.0625 
Q 25.484375 6.203125 34.421875 6.203125 
Q 39.59375 6.203125 44.453125 7.46875 
Q 49.3125 8.734375 54.109375 11.28125 
L 54.109375 2.78125 
Q 49.265625 0.734375 44.1875 -0.34375 
Q 39.109375 -1.421875 33.890625 -1.421875 
Q 20.796875 -1.421875 13.15625 6.1875 
Q 5.515625 13.8125 5.515625 26.8125 
Q 5.515625 40.234375 12.765625 48.109375 
Q 20.015625 56 32.328125 56 
Q 43.359375 56 49.78125 48.890625 
Q 56.203125 41.796875 56.203125 29.59375 
z
M 47.21875 32.234375 
Q 47.125 39.59375 43.09375 43.984375 
Q 39.0625 48.390625 32.421875 48.390625 
Q 24.90625 48.390625 20.390625 44.140625 
Q 15.875 39.890625 15.1875 32.171875 
z
" id="DejaVuSans-101"/>
       <path d="M 41.109375 46.296875 
Q 39.59375 47.171875 37.8125 47.578125 
Q 36.03125 48 33.890625 48 
Q 26.265625 48 22.1875 43.046875 
Q 18.109375 38.09375 18.109375 28.8125 
L 18.109375 0 
L 9.078125 0 
L 9.078125 54.6875 
L 18.109375 54.6875 
L 18.109375 46.1875 
Q 20.953125 51.171875 25.484375 53.578125 
Q 30.03125 56 36.53125 56 
Q 37.453125 56 38.578125 55.875 
Q 39.703125 55.765625 41.0625 55.515625 
z
" id="DejaVuSans-114"/>
      </defs>
      <g transform="translate(283.301904 323.272284)rotate(-30)scale(0.1 -0.1)">
       <use xlink:href="#DejaVuSans-108"/>
       <use x="27.783203" xlink:href="#DejaVuSans-105"/>
       <use x="55.566406" xlink:href="#DejaVuSans-98"/>
       <use x="119.042969" xlink:href="#DejaVuSans-102"/>
       <use x="154.248047" xlink:href="#DejaVuSans-117"/>
       <use x="217.626953" xlink:href="#DejaVuSans-122"/>
       <use x="270.117188" xlink:href="#DejaVuSans-122"/>
       <use x="322.607422" xlink:href="#DejaVuSans-101"/>
       <use x="384.130859" xlink:href="#DejaVuSans-114"/>
      </g>
     </g>
    </g>
    <g id="text_3">
     <!-- Fuzzer (highest median coverage on the left) -->
     <defs>
      <path d="M 9.8125 72.90625 
L 51.703125 72.90625 
L 51.703125 64.59375 
L 19.671875 64.59375 
L 19.671875 43.109375 
L 48.578125 43.109375 
L 48.578125 34.8125 
L 19.671875 34.8125 
L 19.671875 0 
L 9.8125 0 
z
" id="DejaVuSans-70"/>
      <path id="DejaVuSans-32"/>
      <path d="M 31 75.875 
Q 24.46875 64.65625 21.28125 53.65625 
Q 18.109375 42.671875 18.109375 31.390625 
Q 18.109375 20.125 21.3125 9.0625 
Q 24.515625 -2 31 -13.1875 
L 23.1875 -13.1875 
Q 15.875 -1.703125 12.234375 9.375 
Q 8.59375 20.453125 8.59375 31.390625 
Q 8.59375 42.28125 12.203125 53.3125 
Q 15.828125 64.359375 23.1875 75.875 
z
" id="DejaVuSans-40"/>
      <path d="M 54.890625 33.015625 
L 54.890625 0 
L 45.90625 0 
L 45.90625 32.71875 
Q 45.90625 40.484375 42.875 44.328125 
Q 39.84375 48.1875 33.796875 48.1875 
Q 26.515625 48.1875 22.3125 43.546875 
Q 18.109375 38.921875 18.109375 30.90625 
L 18.109375 0 
L 9.078125 0 
L 9.078125 75.984375 
L 18.109375 75.984375 
L 18.109375 46.1875 
Q 21.34375 51.125 25.703125 53.5625 
Q 30.078125 56 35.796875 56 
Q 45.21875 56 50.046875 50.171875 
Q 54.890625 44.34375 54.890625 33.015625 
z
" id="DejaVuSans-104"/>
      <path d="M 45.40625 27.984375 
Q 45.40625 37.75 41.375 43.109375 
Q 37.359375 48.484375 30.078125 48.484375 
Q 22.859375 48.484375 18.828125 43.109375 
Q 14.796875 37.75 14.796875 27.984375 
Q 14.796875 18.265625 18.828125 12.890625 
Q 22.859375 7.515625 30.078125 7.515625 
Q 37.359375 7.515625 41.375 12.890625 
Q 45.40625 18.265625 45.40625 27.984375 
z
M 54.390625 6.78125 
Q 54.390625 -7.171875 48.1875 -13.984375 
Q 42 -20.796875 29.203125 -20.796875 
Q 24.46875 -20.796875 20.265625 -20.09375 
Q 16.0625 -19.390625 12.109375 -17.921875 
L 12.109375 -9.1875 
Q 16.0625 -11.328125 19.921875 -12.34375 
Q 23.78125 -13.375 27.78125 -13.375 
Q 36.625 -13.375 41.015625 -8.765625 
Q 45.40625 -4.15625 45.40625 5.171875 
L 45.40625 9.625 
Q 42.625 4.78125 38.28125 2.390625 
Q 33.9375 0 27.875 0 
Q 17.828125 0 11.671875 7.65625 
Q 5.515625 15.328125 5.515625 27.984375 
Q 5.515625 40.671875 11.671875 48.328125 
Q 17.828125 56 27.875 56 
Q 33.9375 56 38.28125 53.609375 
Q 42.625 51.21875 45.40625 46.390625 
L 45.40625 54.6875 
L 54.390625 54.6875 
z
" id="DejaVuSans-103"/>
      <path d="M 44.28125 53.078125 
L 44.28125 44.578125 
Q 40.484375 46.53125 36.375 47.5 
Q 32.28125 48.484375 27.875 48.484375 
Q 21.1875 48.484375 17.84375 46.4375 
Q 14.5 44.390625 14.5 40.28125 
Q 14.5 37.15625 16.890625 35.375 
Q 19.28125 33.59375 26.515625 31.984375 
L 29.59375 31.296875 
Q 39.15625 29.25 43.1875 25.515625 
Q 47.21875 21.78125 47.21875 15.09375 
Q 47.21875 7.46875 41.1875 3.015625 
Q 35.15625 -1.421875 24.609375 -1.421875 
Q 20.21875 -1.421875 15.453125 -0.5625 
Q 10.6875 0.296875 5.421875 2 
L 5.421875 11.28125 
Q 10.40625 8.6875 15.234375 7.390625 
Q 20.0625 6.109375 24.8125 6.109375 
Q 31.15625 6.109375 34.5625 8.28125 
Q 37.984375 10.453125 37.984375 14.40625 
Q 37.984375 18.0625 35.515625 20.015625 
Q 33.0625 21.96875 24.703125 23.78125 
L 21.578125 24.515625 
Q 13.234375 26.265625 9.515625 29.90625 
Q 5.8125 33.546875 5.8125 39.890625 
Q 5.8125 47.609375 11.28125 51.796875 
Q 16.75 56 26.8125 56 
Q 31.78125 56 36.171875 55.265625 
Q 40.578125 54.546875 44.28125 53.078125 
z
" id="DejaVuSans-115"/>
      <path d="M 18.3125 70.21875 
L 18.3125 54.6875 
L 36.8125 54.6875 
L 36.8125 47.703125 
L 18.3125 47.703125 
L 18.3125 18.015625 
Q 18.3125 11.328125 20.140625 9.421875 
Q 21.96875 7.515625 27.59375 7.515625 
L 36.8125 7.515625 
L 36.8125 0 
L 27.59375 0 
Q 17.1875 0 13.234375 3.875 
Q 9.28125 7.765625 9.28125 18.015625 
L 9.28125 47.703125 
L 2.6875 47.703125 
L 2.6875 54.6875 
L 9.28125 54.6875 
L 9.28125 70.21875 
z
" id="DejaVuSans-116"/>
      <path d="M 52 44.1875 
Q 55.375 50.25 60.0625 53.125 
Q 64.75 56 71.09375 56 
Q 79.640625 56 84.28125 50.015625 
Q 88.921875 44.046875 88.921875 33.015625 
L 88.921875 0 
L 79.890625 0 
L 79.890625 32.71875 
Q 79.890625 40.578125 77.09375 44.375 
Q 74.3125 48.1875 68.609375 48.1875 
Q 61.625 48.1875 57.5625 43.546875 
Q 53.515625 38.921875 53.515625 30.90625 
L 53.515625 0 
L 44.484375 0 
L 44.484375 32.71875 
Q 44.484375 40.625 41.703125 44.40625 
Q 38.921875 48.1875 33.109375 48.1875 
Q 26.21875 48.1875 22.15625 43.53125 
Q 18.109375 38.875 18.109375 30.90625 
L 18.109375 0 
L 9.078125 0 
L 9.078125 54.6875 
L 18.109375 54.6875 
L 18.109375 46.1875 
Q 21.1875 51.21875 25.484375 53.609375 
Q 29.78125 56 35.6875 56 
Q 41.65625 56 45.828125 52.96875 
Q 50 49.953125 52 44.1875 
z
" id="DejaVuSans-109"/>
      <path d="M 45.40625 46.390625 
L 45.40625 75.984375 
L 54.390625 75.984375 
L 54.390625 0 
L 45.40625 0 
L 45.40625 8.203125 
Q 42.578125 3.328125 38.25 0.953125 
Q 33.9375 -1.421875 27.875 -1.421875 
Q 17.96875 -1.421875 11.734375 6.484375 
Q 5.515625 14.40625 5.515625 27.296875 
Q 5.515625 40.1875 11.734375 48.09375 
Q 17.96875 56 27.875 56 
Q 33.9375 56 38.25 53.625 
Q 42.578125 51.265625 45.40625 46.390625 
z
M 14.796875 27.296875 
Q 14.796875 17.390625 18.875 11.75 
Q 22.953125 6.109375 30.078125 6.109375 
Q 37.203125 6.109375 41.296875 11.75 
Q 45.40625 17.390625 45.40625 27.296875 
Q 45.40625 37.203125 41.296875 42.84375 
Q 37.203125 48.484375 30.078125 48.484375 
Q 22.953125 48.484375 18.875 42.84375 
Q 14.796875 37.203125 14.796875 27.296875 
z
" id="DejaVuSans-100"/>
      <path d="M 54.890625 33.015625 
L 54.890625 0 
L 45.90625 0 
L 45.90625 32.71875 
Q 45.90625 40.484375 42.875 44.328125 
Q 39.84375 48.1875 33.796875 48.1875 
Q 26.515625 48.1875 22.3125 43.546875 
Q 18.109375 38.921875 18.109375 30.90625 
L 18.109375 0 
L 9.078125 0 
L 9.078125 54.6875 
L 18.109375 54.6875 
L 18.109375 46.1875 
Q 21.34375 51.125 25.703125 53.5625 
Q 30.078125 56 35.796875 56 
Q 45.21875 56 50.046875 50.171875 
Q 54.890625 44.34375 54.890625 33.015625 
z
" id="DejaVuSans-110"/>
      <path d="M 48.78125 52.59375 
L 48.78125 44.1875 
Q 44.96875 46.296875 41.140625 47.34375 
Q 37.3125 48.390625 33.40625 48.390625 
Q 24.65625 48.390625 19.8125 42.84375 
Q 14.984375 37.3125 14.984375 27.296875 
Q 14.984375 17.28125 19.8125 11.734375 
Q 24.65625 6.203125 33.40625 6.203125 
Q 37.3125 6.203125 41.140625 7.25 
Q 44.96875 8.296875 48.78125 10.40625 
L 48.78125 2.09375 
Q 45.015625 0.34375 40.984375 -0.53125 
Q 36.96875 -1.421875 32.421875 -1.421875 
Q 20.0625 -1.421875 12.78125 6.34375 
Q 5.515625 14.109375 5.515625 27.296875 
Q 5.515625 40.671875 12.859375 48.328125 
Q 20.21875 56 33.015625 56 
Q 37.15625 56 41.109375 55.140625 
Q 45.0625 54.296875 48.78125 52.59375 
z
" id="DejaVuSans-99"/>
      <path d="M 30.609375 48.390625 
Q 23.390625 48.390625 19.1875 42.75 
Q 14.984375 37.109375 14.984375 27.296875 
Q 14.984375 17.484375 19.15625 11.84375 
Q 23.34375 6.203125 30.609375 6.203125 
Q 37.796875 6.203125 41.984375 11.859375 
Q 46.1875 17.53125 46.1875 27.296875 
Q 46.1875 37.015625 41.984375 42.703125 
Q 37.796875 48.390625 30.609375 48.390625 
z
M 30.609375 56 
Q 42.328125 56 49.015625 48.375 
Q 55.71875 40.765625 55.71875 27.296875 
Q 55.71875 13.875 49.015625 6.21875 
Q 42.328125 -1.421875 30.609375 -1.421875 
Q 18.84375 -1.421875 12.171875 6.21875 
Q 5.515625 13.875 5.515625 27.296875 
Q 5.515625 40.765625 12.171875 48.375 
Q 18.84375 56 30.609375 56 
z
" id="DejaVuSans-111"/>
      <path d="M 2.984375 54.6875 
L 12.5 54.6875 
L 29.59375 8.796875 
L 46.6875 54.6875 
L 56.203125 54.6875 
L 35.6875 0 
L 23.484375 0 
z
" id="DejaVuSans-118"/>
      <path d="M 8.015625 75.875 
L 15.828125 75.875 
Q 23.140625 64.359375 26.78125 53.3125 
Q 30.421875 42.28125 30.421875 31.390625 
Q 30.421875 20.453125 26.78125 9.375 
Q 23.140625 -1.703125 15.828125 -13.1875 
L 8.015625 -13.1875 
Q 14.5 -2 17.703125 9.0625 
Q 20.90625 20.125 20.90625 31.390625 
Q 20.90625 42.671875 17.703125 53.65625 
Q 14.5 64.65625 8.015625 75.875 
z
" id="DejaVuSans-41"/>
     </defs>
     <g transform="translate(119.270156 336.671783)scale(0.1 -0.1)">
      <use xlink:href="#DejaVuSans-70"/>
      <use x="52.019531" xlink:href="#DejaVuSans-117"/>
      <use x="115.398438" xlink:href="#DejaVuSans-122"/>
      <use x="167.888672" xlink:href="#DejaVuSans-122"/>
      <use x="220.378906" xlink:href="#DejaVuSans-101"/>
      <use x="281.902344" xlink:href="#DejaVuSans-114"/>
      <use x="323.015625" xlink:href="#DejaVuSans-32"/>
      <use x="354.802734" xlink:href="#DejaVuSans-40"/>
      <use x="393.816406" xlink:href="#DejaVuSans-104"/>
      <use x="457.195312" xlink:href="#DejaVuSans-105"/>
      <use x="484.978516" xlink:href="#DejaVuSans-103"/>
      <use x="548.455078" xlink:href="#DejaVuSans-104"/>
      <use x="611.833984" xlink:href="#DejaVuSans-101"/>
      <use x="673.357422" xlink:href="#DejaVuSans-115"/>
      <use x="725.457031" xlink:href="#DejaVuSans-116"/>
      <use x="764.666016" xlink:href="#DejaVuSans-32"/>
      <use x="796.453125" xlink:href="#DejaVuSans-109"/>
      <use x="893.865234" xlink:href="#DejaVuSans-101"/>
      <use x="955.388672" xlink:href="#DejaVuSans-100"/>
      <use x="1018.865234" xlink:href="#DejaVuSans-105"/>
      <use x="1046.648438" xlink:href="#DejaVuSans-97"/>
      <use x="1107.927734" xlink:href="#DejaVuSans-110"/>
      <use x="1171.306641" xlink:href="#DejaVuSans-32"/>
      <use x="1203.09375" xlink:href="#DejaVuSans-99"/>
      <use x="1258.074219" xlink:href="#DejaVuSans-111"/>
      <use x="1319.255859" xlink:href="#DejaVuSans-118"/>
      <use x="1378.435547" xlink:href="#DejaVuSans-101"/>
      <use x="1439.958984" xlink:href="#DejaVuSans-114"/>
      <use x="1481.072266" xlink:href="#DejaVuSans-97"/>
      <use x="1542.351562" xlink:href="#DejaVuSans-103"/>
      <use x="1605.828125" xlink:href="#DejaVuSans-101"/>
      <use x="1667.351562" xlink:href="#DejaVuSans-32"/>
      <use x="1699.138672" xlink:href="#DejaVuSans-111"/>
      <use x="1760.320312" xlink:href="#DejaVuSans-110"/>
      <use x="1823.699219" xlink:href="#DejaVuSans-32"/>
      <use x="1855.486328" xlink:href="#DejaVuSans-116"/>
      <use x="1894.695312" xlink:href="#DejaVuSans-104"/>
      <use x="1958.074219" xlink:href="#DejaVuSans-101"/>
      <use x="2019.597656" xlink:href="#DejaVuSans-32"/>
      <use x="2051.384766" xlink:href="#DejaVuSans-108"/>
      <use x="2079.167969" xlink:href="#DejaVuSans-101"/>
      <use x="2140.691406" xlink:href="#DejaVuSans-102"/>
      <use x="2174.146484" xlink:href="#DejaVuSans-116"/>
      <use x="2213.355469" xlink:href="#DejaVuSans-41"/>
     </g>
    </g>
   </g>
   <g id="matplotlib.axis_2">
    <g id="ytick_1">
     <g id="line2d_3">
      <defs>
       <path d="M 0 0 
L -3.5 0 
" id="m2860478065" style="stroke:#000000;stroke-width:0.8;"/>
      </defs>
      <g>
       <use style="stroke:#000000;stroke-width:0.8;" x="53.328125" xlink:href="#m2860478065" y="261.412296"/>
      </g>
     </g>
     <g id="text_4">
      <!-- 1800 -->
      <defs>
       <path d="M 12.40625 8.296875 
L 28.515625 8.296875 
L 28.515625 63.921875 
L 10.984375 60.40625 
L 10.984375 69.390625 
L 28.421875 72.90625 
L 38.28125 72.90625 
L 38.28125 8.296875 
L 54.390625 8.296875 
L 54.390625 0 
L 12.40625 0 
z
" id="DejaVuSans-49"/>
       <path d="M 31.78125 34.625 
Q 24.75 34.625 20.71875 30.859375 
Q 16.703125 27.09375 16.703125 20.515625 
Q 16.703125 13.921875 20.71875 10.15625 
Q 24.75 6.390625 31.78125 6.390625 
Q 38.8125 6.390625 42.859375 10.171875 
Q 46.921875 13.96875 46.921875 20.515625 
Q 46.921875 27.09375 42.890625 30.859375 
Q 38.875 34.625 31.78125 34.625 
z
M 21.921875 38.8125 
Q 15.578125 40.375 12.03125 44.71875 
Q 8.5 49.078125 8.5 55.328125 
Q 8.5 64.0625 14.71875 69.140625 
Q 20.953125 74.21875 31.78125 74.21875 
Q 42.671875 74.21875 48.875 69.140625 
Q 55.078125 64.0625 55.078125 55.328125 
Q 55.078125 49.078125 51.53125 44.71875 
Q 48 40.375 41.703125 38.8125 
Q 48.828125 37.15625 52.796875 32.3125 
Q 56.78125 27.484375 56.78125 20.515625 
Q 56.78125 9.90625 50.3125 4.234375 
Q 43.84375 -1.421875 31.78125 -1.421875 
Q 19.734375 -1.421875 13.25 4.234375 
Q 6.78125 9.90625 6.78125 20.515625 
Q 6.78125 27.484375 10.78125 32.3125 
Q 14.796875 37.15625 21.921875 38.8125 
z
M 18.3125 54.390625 
Q 18.3125 48.734375 21.84375 45.5625 
Q 25.390625 42.390625 31.78125 42.390625 
Q 38.140625 42.390625 41.71875 45.5625 
Q 45.3125 48.734375 45.3125 54.390625 
Q 45.3125 60.0625 41.71875 63.234375 
Q 38.140625 66.40625 31.78125 66.40625 
Q 25.390625 66.40625 21.84375 63.234375 
Q 18.3125 60.0625 18.3125 54.390625 
z
" id="DejaVuSans-56"/>
       <path d="M 31.78125 66.40625 
Q 24.171875 66.40625 20.328125 58.90625 
Q 16.5 51.421875 16.5 36.375 
Q 16.5 21.390625 20.328125 13.890625 
Q 24.171875 6.390625 31.78125 6.390625 
Q 39.453125 6.390625 43.28125 13.890625 
Q 47.125 21.390625 47.125 36.375 
Q 47.125 51.421875 43.28125 58.90625 
Q 39.453125 66.40625 31.78125 66.40625 
z
M 31.78125 74.21875 
Q 44.046875 74.21875 50.515625 64.515625 
Q 56.984375 54.828125 56.984375 36.375 
Q 56.984375 17.96875 50.515625 8.265625 
Q 44.046875 -1.421875 31.78125 -1.421875 
Q 19.53125 -1.421875 13.0625 8.265625 
Q 6.59375 17.96875 6.59375 36.375 
Q 6.59375 54.828125 13.0625 64.515625 
Q 19.53125 74.21875 31.78125 74.21875 
z
" id="DejaVuSans-48"/>
      </defs>
      <g transform="translate(20.878125 265.211515)scale(0.1 -0.1)">
       <use xlink:href="#DejaVuSans-49"/>
       <use x="63.623047" xlink:href="#DejaVuSans-56"/>
       <use x="127.246094" xlink:href="#DejaVuSans-48"/>
       <use x="190.869141" xlink:href="#DejaVuSans-48"/>
      </g>
     </g>
    </g>
    <g id="ytick_2">
     <g id="line2d_4">
      <g>
       <use style="stroke:#000000;stroke-width:0.8;" x="53.328125" xlink:href="#m2860478065" y="230.414806"/>
      </g>
     </g>
     <g id="text_5">
      <!-- 1820 -->
      <defs>
       <path d="M 19.1875 8.296875 
L 53.609375 8.296875 
L 53.609375 0 
L 7.328125 0 
L 7.328125 8.296875 
Q 12.9375 14.109375 22.625 23.890625 
Q 32.328125 33.6875 34.8125 36.53125 
Q 39.546875 41.84375 41.421875 45.53125 
Q 43.3125 49.21875 43.3125 52.78125 
Q 43.3125 58.59375 39.234375 62.25 
Q 35.15625 65.921875 28.609375 65.921875 
Q 23.96875 65.921875 18.8125 64.3125 
Q 13.671875 62.703125 7.8125 59.421875 
L 7.8125 69.390625 
Q 13.765625 71.78125 18.9375 73 
Q 24.125 74.21875 28.421875 74.21875 
Q 39.75 74.21875 46.484375 68.546875 
Q 53.21875 62.890625 53.21875 53.421875 
Q 53.21875 48.921875 51.53125 44.890625 
Q 49.859375 40.875 45.40625 35.40625 
Q 44.1875 33.984375 37.640625 27.21875 
Q 31.109375 20.453125 19.1875 8.296875 
z
" id="DejaVuSans-50"/>
      </defs>
      <g transform="translate(20.878125 234.214024)scale(0.1 -0.1)">
       <use xlink:href="#DejaVuSans-49"/>
       <use x="63.623047" xlink:href="#DejaVuSans-56"/>
       <use x="127.246094" xlink:href="#DejaVuSans-50"/>
       <use x="190.869141" xlink:href="#DejaVuSans-48"/>
      </g>
     </g>
    </g>
    <g id="ytick_3">
     <g id="line2d_5">
      <g>
       <use style="stroke:#000000;stroke-width:0.8;" x="53.328125" xlink:href="#m2860478065" y="199.417315"/>
      </g>
     </g>
     <g id="text_6">
      <!-- 1840 -->
      <defs>
       <path d="M 37.796875 64.3125 
L 12.890625 25.390625 
L 37.796875 25.390625 
z
M 35.203125 72.90625 
L 47.609375 72.90625 
L 47.609375 25.390625 
L 58.015625 25.390625 
L 58.015625 17.1875 
L 47.609375 17.1875 
L 47.609375 0 
L 37.796875 0 
L 37.796875 17.1875 
L 4.890625 17.1875 
L 4.890625 26.703125 
z
" id="DejaVuSans-52"/>
      </defs>
      <g transform="translate(20.878125 203.216534)scale(0.1 -0.1)">
       <use xlink:href="#DejaVuSans-49"/>
       <use x="63.623047" xlink:href="#DejaVuSans-56"/>
       <use x="127.246094" xlink:href="#DejaVuSans-52"/>
       <use x="190.869141" xlink:href="#DejaVuSans-48"/>
      </g>
     </g>
    </g>
    <g id="ytick_4">
     <g id="line2d_6">
      <g>
       <use style="stroke:#000000;stroke-width:0.8;" x="53.328125" xlink:href="#m2860478065" y="168.419824"/>
      </g>
     </g>
     <g id="text_7">
      <!-- 1860 -->
      <defs>
       <path d="M 33.015625 40.375 
Q 26.375 40.375 22.484375 35.828125 
Q 18.609375 31.296875 18.609375 23.390625 
Q 18.609375 15.53125 22.484375 10.953125 
Q 26.375 6.390625 33.015625 6.390625 
Q 39.65625 6.390625 43.53125 10.953125 
Q 47.40625 15.53125 47.40625 23.390625 
Q 47.40625 31.296875 43.53125 35.828125 
Q 39.65625 40.375 33.015625 40.375 
z
M 52.59375 71.296875 
L 52.59375 62.3125 
Q 48.875 64.0625 45.09375 64.984375 
Q 41.3125 65.921875 37.59375 65.921875 
Q 27.828125 65.921875 22.671875 59.328125 
Q 17.53125 52.734375 16.796875 39.40625 
Q 19.671875 43.65625 24.015625 45.921875 
Q 28.375 48.1875 33.59375 48.1875 
Q 44.578125 48.1875 50.953125 41.515625 
Q 57.328125 34.859375 57.328125 23.390625 
Q 57.328125 12.15625 50.6875 5.359375 
Q 44.046875 -1.421875 33.015625 -1.421875 
Q 20.359375 -1.421875 13.671875 8.265625 
Q 6.984375 17.96875 6.984375 36.375 
Q 6.984375 53.65625 15.1875 63.9375 
Q 23.390625 74.21875 37.203125 74.21875 
Q 40.921875 74.21875 44.703125 73.484375 
Q 48.484375 72.75 52.59375 71.296875 
z
" id="DejaVuSans-54"/>
      </defs>
      <g transform="translate(20.878125 172.219043)scale(0.1 -0.1)">
       <use xlink:href="#DejaVuSans-49"/>
       <use x="63.623047" xlink:href="#DejaVuSans-56"/>
       <use x="127.246094" xlink:href="#DejaVuSans-54"/>
       <use x="190.869141" xlink:href="#DejaVuSans-48"/>
      </g>
     </g>
    </g>
    <g id="ytick_5">
     <g id="line2d_7">
      <g>
       <use style="stroke:#000000;stroke-width:0.8;" x="53.328125" xlink:href="#m2860478065" y="137.422334"/>
      </g>
     </g>
     <g id="text_8">
      <!-- 1880 -->
      <g transform="translate(20.878125 141.221552)scale(0.1 -0.1)">
       <use xlink:href="#DejaVuSans-49"/>
       <use x="63.623047" xlink:href="#DejaVuSans-56"/>
       <use x="127.246094" xlink:href="#DejaVuSans-56"/>
       <use x="190.869141" xlink:href="#DejaVuSans-48"/>
      </g>
     </g>
    </g>
    <g id="ytick_6">
     <g id="line2d_8">
      <g>
       <use style="stroke:#000000;stroke-width:0.8;" x="53.328125" xlink:href="#m2860478065" y="106.424843"/>
      </g>
     </g>
     <g id="text_9">
      <!-- 1900 -->
      <defs>
       <path d="M 10.984375 1.515625 
L 10.984375 10.5 
Q 14.703125 8.734375 18.5 7.8125 
Q 22.3125 6.890625 25.984375 6.890625 
Q 35.75 6.890625 40.890625 13.453125 
Q 46.046875 20.015625 46.78125 33.40625 
Q 43.953125 29.203125 39.59375 26.953125 
Q 35.25 24.703125 29.984375 24.703125 
Q 19.046875 24.703125 12.671875 31.3125 
Q 6.296875 37.9375 6.296875 49.421875 
Q 6.296875 60.640625 12.9375 67.421875 
Q 19.578125 74.21875 30.609375 74.21875 
Q 43.265625 74.21875 49.921875 64.515625 
Q 56.59375 54.828125 56.59375 36.375 
Q 56.59375 19.140625 48.40625 8.859375 
Q 40.234375 -1.421875 26.421875 -1.421875 
Q 22.703125 -1.421875 18.890625 -0.6875 
Q 15.09375 0.046875 10.984375 1.515625 
z
M 30.609375 32.421875 
Q 37.25 32.421875 41.125 36.953125 
Q 45.015625 41.5 45.015625 49.421875 
Q 45.015625 57.28125 41.125 61.84375 
Q 37.25 66.40625 30.609375 66.40625 
Q 23.96875 66.40625 20.09375 61.84375 
Q 16.21875 57.28125 16.21875 49.421875 
Q 16.21875 41.5 20.09375 36.953125 
Q 23.96875 32.421875 30.609375 32.421875 
z
" id="DejaVuSans-57"/>
      </defs>
      <g transform="translate(20.878125 110.224062)scale(0.1 -0.1)">
       <use xlink:href="#DejaVuSans-49"/>
       <use x="63.623047" xlink:href="#DejaVuSans-57"/>
       <use x="127.246094" xlink:href="#DejaVuSans-48"/>
       <use x="190.869141" xlink:href="#DejaVuSans-48"/>
      </g>
     </g>
    </g>
    <g id="ytick_7">
     <g id="line2d_9">
      <g>
       <use style="stroke:#000000;stroke-width:0.8;" x="53.328125" xlink:href="#m2860478065" y="75.427352"/>
      </g>
     </g>
     <g id="text_10">
      <!-- 1920 -->
      <g transform="translate(20.878125 79.226571)scale(0.1 -0.1)">
       <use xlink:href="#DejaVuSans-49"/>
       <use x="63.623047" xlink:href="#DejaVuSans-57"/>
       <use x="127.246094" xlink:href="#DejaVuSans-50"/>
       <use x="190.869141" xlink:href="#DejaVuSans-48"/>
      </g>
     </g>
    </g>
    <g id="ytick_8">
     <g id="line2d_10">
      <g>
       <use style="stroke:#000000;stroke-width:0.8;" x="53.328125" xlink:href="#m2860478065" y="44.429862"/>
      </g>
     </g>
     <g id="text_11">
      <!-- 1940 -->
      <g transform="translate(20.878125 48.229081)scale(0.1 -0.1)">
       <use xlink:href="#DejaVuSans-49"/>
       <use x="63.623047" xlink:href="#DejaVuSans-57"/>
       <use x="127.246094" xlink:href="#DejaVuSans-52"/>
       <use x="190.869141" xlink:href="#DejaVuSans-48"/>
      </g>
     </g>
    </g>
    <g id="text_12">
     <!-- Reached edge coverage -->
     <defs>
      <path d="M 44.390625 34.1875 
Q 47.5625 33.109375 50.5625 29.59375 
Q 53.5625 26.078125 56.59375 19.921875 
L 66.609375 0 
L 56 0 
L 46.6875 18.703125 
Q 43.0625 26.03125 39.671875 28.421875 
Q 36.28125 30.8125 30.421875 30.8125 
L 19.671875 30.8125 
L 19.671875 0 
L 9.8125 0 
L 9.8125 72.90625 
L 32.078125 72.90625 
Q 44.578125 72.90625 50.734375 67.671875 
Q 56.890625 62.453125 56.890625 51.90625 
Q 56.890625 45.015625 53.6875 40.46875 
Q 50.484375 35.9375 44.390625 34.1875 
z
M 19.671875 64.796875 
L 19.671875 38.921875 
L 32.078125 38.921875 
Q 39.203125 38.921875 42.84375 42.21875 
Q 46.484375 45.515625 46.484375 51.90625 
Q 46.484375 58.296875 42.84375 61.546875 
Q 39.203125 64.796875 32.078125 64.796875 
z
" id="DejaVuSans-82"/>
     </defs>
     <g transform="translate(14.798438 215.82725)rotate(-90)scale(0.1 -0.1)">
      <use xlink:href="#DejaVuSans-82"/>
      <use x="64.982422" xlink:href="#DejaVuSans-101"/>
      <use x="126.505859" xlink:href="#DejaVuSans-97"/>
      <use x="187.785156" xlink:href="#DejaVuSans-99"/>
      <use x="242.765625" xlink:href="#DejaVuSans-104"/>
      <use x="306.144531" xlink:href="#DejaVuSans-101"/>
      <use x="367.667969" xlink:href="#DejaVuSans-100"/>
      <use x="431.144531" xlink:href="#DejaVuSans-32"/>
      <use x="462.931641" xlink:href="#DejaVuSans-101"/>
      <use x="524.455078" xlink:href="#DejaVuSans-100"/>
      <use x="587.931641" xlink:href="#DejaVuSans-103"/>
      <use x="651.408203" xlink:href="#DejaVuSans-101"/>
      <use x="712.931641" xlink:href="#DejaVuSans-32"/>
      <use x="744.71875" xlink:href="#DejaVuSans-99"/>
      <use x="799.699219" xlink:href="#DejaVuSans-111"/>
      <use x="860.880859" xlink:href="#DejaVuSans-118"/>
      <use x="920.060547" xlink:href="#DejaVuSans-101"/>
      <use x="981.583984" xlink:href="#DejaVuSans-114"/>
      <use x="1022.697266" xlink:href="#DejaVuSans-97"/>
      <use x="1083.976562" xlink:href="#DejaVuSans-103"/>
      <use x="1147.453125" xlink:href="#DejaVuSans-101"/>
     </g>
    </g>
   </g>
   <g id="line2d_11">
    <path clip-path="url(#p13c86f4ac2)" d="M 142.608125 41.330113 
L 142.608125 38.230364 
" style="fill:none;stroke:#3f3f3f;stroke-linecap:square;stroke-width:1.5;"/>
   </g>
   <g id="line2d_12">
    <path clip-path="url(#p13c86f4ac2)" d="M 142.608125 40.555176 
L 142.608125 39.005301 
" style="fill:none;stroke:#3f3f3f;stroke-linecap:square;stroke-width:4.5;"/>
   </g>
   <g id="line2d_13">
    <path clip-path="url(#p13c86f4ac2)" d="M 321.168125 213.366186 
L 321.168125 162.220326 
" style="fill:none;stroke:#3f3f3f;stroke-linecap:square;stroke-width:1.5;"/>
   </g>
   <g id="line2d_14">
    <path clip-path="url(#p13c86f4ac2)" d="M 321.168125 200.579721 
L 321.168125 175.006791 
" style="fill:none;stroke:#3f3f3f;stroke-linecap:square;stroke-width:4.5;"/>
   </g>
   <g id="patch_3">
    <path d="M 53.328125 261.412296 
L 53.328125 44.429862 
" style="fill:none;stroke:#000000;stroke-linecap:square;stroke-linejoin:miter;stroke-width:0.8;"/>
   </g>
   <g id="patch_4">
    <path d="M 142.608125 288.430125 
L 321.168125 288.430125 
" style="fill:none;stroke:#000000;stroke-linecap:square;stroke-linejoin:miter;stroke-width:0.8;"/>
   </g>
   <g id="PathCollection_1">
    <defs>
     <path d="M 0 1.5 
C 0.397805 1.5 0.77937 1.341951 1.06066 1.06066 
C 1.341951 0.77937 1.5 0.397805 1.5 0 
C 1.5 -0.397805 1.341951 -0.77937 1.06066 -1.06066 
C 0.77937 -1.341951 0.397805 -1.5 0 -1.5 
C -0.397805 -1.5 -0.77937 -1.341951 -1.06066 -1.06066 
C -1.341951 -0.77937 -1.5 -0.397805 -1.5 0 
C -1.5 0.397805 -1.341951 0.77937 -1.06066 1.06066 
C -0.77937 1.341951 -0.397805 1.5 0 1.5 
z
" id="m33efada49a" style="stroke:#3f3f3f;"/>
    </defs>
    <g clip-path="url(#p13c86f4ac2)">
     <use style="fill:#ffffff;stroke:#3f3f3f;" x="142.608125" xlink:href="#m33efada49a" y="39.780238"/>
    </g>
   </g>
   <g id="PathCollection_2">
    <g clip-path="url(#p13c86f4ac2)">
     <use style="fill:#ffffff;stroke:#3f3f3f;" x="321.168125" xlink:href="#m33efada49a" y="187.793256"/>
    </g>
   </g>
   <g id="text_13">
    <!-- libpng-1.2.56 (30m, 2 trials/fuzzer) -->
    <defs>
     <path d="M 18.109375 8.203125 
L 18.109375 -20.796875 
L 9.078125 -20.796875 
L 9.078125 54.6875 
L 18.109375 54.6875 
L 18.109375 46.390625 
Q 20.953125 51.265625 25.265625 53.625 
Q 29.59375 56 35.59375 56 
Q 45.5625 56 51.78125 48.09375 
Q 58.015625 40.1875 58.015625 27.296875 
Q 58.015625 14.40625 51.78125 6.484375 
Q 45.5625 -1.421875 35.59375 -1.421875 
Q 29.59375 -1.421875 25.265625 0.953125 
Q 20.953125 3.328125 18.109375 8.203125 
z
M 48.6875 27.296875 
Q 48.6875 37.203125 44.609375 42.84375 
Q 40.53125 48.484375 33.40625 48.484375 
Q 26.265625 48.484375 22.1875 42.84375 
Q 18.109375 37.203125 18.109375 27.296875 
Q 18.109375 17.390625 22.1875 11.75 
Q 26.265625 6.109375 33.40625 6.109375 
Q 40.53125 6.109375 44.609375 11.75 
Q 48.6875 17.390625 48.6875 27.296875 
z
" id="DejaVuSans-112"/>
     <path d="M 4.890625 31.390625 
L 31.203125 31.390625 
L 31.203125 23.390625 
L 4.890625 23.390625 
z
" id="DejaVuSans-45"/>
     <path d="M 10.6875 12.40625 
L 21 12.40625 
L 21 0 
L 10.6875 0 
z
" id="DejaVuSans-46"/>
     <path d="M 10.796875 72.90625 
L 49.515625 72.90625 
L 49.515625 64.59375 
L 19.828125 64.59375 
L 19.828125 46.734375 
Q 21.96875 47.46875 24.109375 47.828125 
Q 26.265625 48.1875 28.421875 48.1875 
Q 40.625 48.1875 47.75 41.5 
Q 54.890625 34.8125 54.890625 23.390625 
Q 54.890625 11.625 47.5625 5.09375 
Q 40.234375 -1.421875 26.90625 -1.421875 
Q 22.3125 -1.421875 17.546875 -0.640625 
Q 12.796875 0.140625 7.71875 1.703125 
L 7.71875 11.625 
Q 12.109375 9.234375 16.796875 8.0625 
Q 21.484375 6.890625 26.703125 6.890625 
Q 35.15625 6.890625 40.078125 11.328125 
Q 45.015625 15.765625 45.015625 23.390625 
Q 45.015625 31 40.078125 35.4375 
Q 35.15625 39.890625 26.703125 39.890625 
Q 22.75 39.890625 18.8125 39.015625 
Q 14.890625 38.140625 10.796875 36.28125 
z
" id="DejaVuSans-53"/>
     <path d="M 40.578125 39.3125 
Q 47.65625 37.796875 51.625 33 
Q 55.609375 28.21875 55.609375 21.1875 
Q 55.609375 10.40625 48.1875 4.484375 
Q 40.765625 -1.421875 27.09375 -1.421875 
Q 22.515625 -1.421875 17.65625 -0.515625 
Q 12.796875 0.390625 7.625 2.203125 
L 7.625 11.71875 
Q 11.71875 9.328125 16.59375 8.109375 
Q 21.484375 6.890625 26.8125 6.890625 
Q 36.078125 6.890625 40.9375 10.546875 
Q 45.796875 14.203125 45.796875 21.1875 
Q 45.796875 27.640625 41.28125 31.265625 
Q 36.765625 34.90625 28.71875 34.90625 
L 20.21875 34.90625 
L 20.21875 43.015625 
L 29.109375 43.015625 
Q 36.375 43.015625 40.234375 45.921875 
Q 44.09375 48.828125 44.09375 54.296875 
Q 44.09375 59.90625 40.109375 62.90625 
Q 36.140625 65.921875 28.71875 65.921875 
Q 24.65625 65.921875 20.015625 65.03125 
Q 15.375 64.15625 9.8125 62.3125 
L 9.8125 71.09375 
Q 15.4375 72.65625 20.34375 73.4375 
Q 25.25 74.21875 29.59375 74.21875 
Q 40.828125 74.21875 47.359375 69.109375 
Q 53.90625 64.015625 53.90625 55.328125 
Q 53.90625 49.265625 50.4375 45.09375 
Q 46.96875 40.921875 40.578125 39.3125 
z
" id="DejaVuSans-51"/>
     <path d="M 11.71875 12.40625 
L 22.015625 12.40625 
L 22.015625 4 
L 14.015625 -11.625 
L 7.71875 -11.625 
L 11.71875 4 
z
" id="DejaVuSans-44"/>
     <path d="M 25.390625 72.90625 
L 33.6875 72.90625 
L 8.296875 -9.28125 
L 0 -9.28125 
z
" id="DejaVuSans-47"/>
    </defs>
    <g transform="translate(127.1225 16.318125)scale(0.12 -0.12)">
     <use xlink:href="#DejaVuSans-108"/>
     <use x="27.783203" xlink:href="#DejaVuSans-105"/>
     <use x="55.566406" xlink:href="#DejaVuSans-98"/>
     <use x="119.042969" xlink:href="#DejaVuSans-112"/>
     <use x="182.519531" xlink:href="#DejaVuSans-110"/>
     <use x="245.898438" xlink:href="#DejaVuSans-103"/>
     <use x="309.375" xlink:href="#DejaVuSans-45"/>
     <use x="345.458984" xlink:href="#DejaVuSans-49"/>
     <use x="409.082031" xlink:href="#DejaVuSans-46"/>
     <use x="440.869141" xlink:href="#DejaVuSans-50"/>
     <use x="504.492188" xlink:href="#DejaVuSans-46"/>
     <use x="536.279297" xlink:href="#DejaVuSans-53"/>
     <use x="599.902344" xlink:href="#DejaVuSans-54"/>
     <use x="663.525391" xlink:href="#DejaVuSans-32"/>
     <use x="695.3125" xlink:href="#DejaVuSans-40"/>
     <use x="734.326172" xlink:href="#DejaVuSans-51"/>
     <use x="797.949219" xlink:href="#DejaVuSans-48"/>
     <use x="861.572266" xlink:href="#DejaVuSans-109"/>
     <use x="958.984375" xlink:href="#DejaVuSans-44"/>
     <use x="990.771484" xlink:href="#DejaVuSans-32"/>
     <use x="1022.558594" xlink:href="#DejaVuSans-50"/>
     <use x="1086.181641" xlink:href="#DejaVuSans-32"/>
     <use x="1117.96875" xlink:href="#DejaVuSans-116"/>
     <use x="1157.177734" xlink:href="#DejaVuSans-114"/>
     <use x="1198.291016" xlink:href="#DejaVuSans-105"/>
     <use x="1226.074219" xlink:href="#DejaVuSans-97"/>
     <use x="1287.353516" xlink:href="#DejaVuSans-108"/>
     <use x="1315.136719" xlink:href="#DejaVuSans-115"/>
     <use x="1367.236328" xlink:href="#DejaVuSans-47"/>
     <use x="1400.927734" xlink:href="#DejaVuSans-102"/>
     <use x="1436.132812" xlink:href="#DejaVuSans-117"/>
     <use x="1499.511719" xlink:href="#DejaVuSans-122"/>
     <use x="1552.001953" xlink:href="#DejaVuSans-122"/>
     <use x="1604.492188" xlink:href="#DejaVuSans-101"/>
     <use x="1666.015625" xlink:href="#DejaVuSans-114"/>
     <use x="1707.128906" xlink:href="#DejaVuSans-41"/>
    </g>
   </g>
  </g>
 </g>
 <defs>
  <clipPath id="p13c86f4ac2">
   <rect height="266.112" width="357.12" x="53.328125" y="22.318125"/>
  </clipPath>
 </defs>
</svg>
